<?xml version="1.0" standalone="no"?>
<!DOCTYPE svg PUBLIC "-//W3C//DTD SVG 20010904//EN"
 "http://www.w3.org/TR/2001/REC-SVG-20010904/DTD/svg10.dtd">
<svg version="1.0" xmlns="http://www.w3.org/2000/svg"
 width="483.000000pt" height="364.000000pt" viewBox="0 0 483.000000 364.000000"
 preserveAspectRatio="xMidYMid meet">
<metadata>
Created by potrace 1.16, written by Peter Selinger 2001-2019
</metadata>
<g transform="translate(0.000000,364.000000) scale(0.100000,-0.100000)"
fill="#000000" stroke="none">
<path d="M3644 3300 c-68 -10 -130 -39 -340 -160 -157 -91 -178 -100 -209 -94
-23 4 -35 2 -35 -5 0 -6 5 -11 12 -11 21 0 -47 -50 -152 -111 -187 -109 -221
-129 -225 -129 -2 0 -57 -31 -121 -70 -65 -38 -124 -70 -132 -70 -7 0 -27 7
-43 16 -35 18 -48 12 -28 -12 12 -15 11 -16 -16 -10 -63 12 -394 66 -411 66
-45 0 9 -12 206 -45 118 -20 215 -37 216 -38 11 -11 -147 -127 -171 -127 -3 0
-24 -12 -48 -27 -81 -51 -212 -114 -215 -104 -5 14 -32 14 -32 1 0 -5 5 -10
10 -10 18 0 -52 -55 -110 -87 -30 -16 -115 -64 -188 -106 -73 -43 -134 -77
-137 -77 -2 0 -23 -13 -47 -29 -24 -15 -70 -43 -103 -61 -33 -18 -91 -52 -130
-75 -38 -22 -77 -44 -85 -48 -8 -4 -24 -13 -35 -20 -51 -30 -260 -150 -358
-206 -91 -51 -112 -59 -129 -50 -14 8 -23 8 -31 0 -8 -8 -8 -11 1 -11 7 0 12
-5 12 -12 0 -6 -3 -9 -6 -5 -3 3 -16 -5 -28 -18 -11 -14 -79 -57 -151 -96
-223 -122 -246 -151 -217 -275 9 -38 20 -71 24 -72 5 -2 6 -8 2 -13 -3 -5 0
-8 7 -7 6 2 14 -3 17 -11 3 -9 0 -11 -9 -6 -8 5 -1 -6 15 -23 36 -38 104 -68
179 -77 l57 -7 0 -207 0 -206 -35 -28 c-44 -35 -46 -66 -6 -100 54 -45 167
-43 217 4 32 30 30 62 -6 92 -17 14 -30 34 -30 45 0 11 -16 30 -40 46 -42 28
-43 27 -40 -17 2 -26 0 -28 -20 -17 -17 9 -19 14 -9 26 10 12 9 13 -5 8 -14
-6 -16 11 -16 174 l0 179 56 7 c34 4 85 21 128 42 77 39 116 67 51 37 -22 -10
-42 -21 -45 -24 -3 -3 -27 -14 -55 -25 -104 -40 -298 -17 -363 43 -31 28 -28
27 53 -12 54 -26 71 -29 160 -29 59 -1 116 5 140 13 35 12 161 79 223 119 13
8 22 10 22 4 0 -6 -18 -21 -40 -34 l-39 -24 -3 -367 c-2 -202 0 -367 3 -367 3
0 4 13 1 30 -5 33 -1 35 29 20 14 -8 19 -21 19 -51 0 -28 4 -39 12 -37 8 3 12
18 10 41 -3 27 1 38 16 46 33 18 45 -15 16 -43 -8 -9 -11 -16 -5 -16 25 0 39
30 30 64 -5 20 -8 176 -7 360 3 285 1 325 -12 323 -22 -3 -22 51 1 63 26 15
29 13 30 -22 l2 -33 4 30 c3 17 9 36 15 43 7 8 7 12 -1 12 -7 0 -10 4 -6 9 9
15 67 42 74 35 3 -4 1 -9 -5 -11 -6 -2 -20 -11 -30 -19 -17 -13 -16 -13 12 0
18 9 50 17 73 18 22 2 41 7 41 11 0 9 14 27 44 57 18 18 18 19 -5 14 l-24 -6
23 19 c13 11 40 28 60 39 21 10 81 45 135 76 54 32 100 58 103 58 2 0 33 18
70 41 36 22 71 38 77 36 6 -2 -15 -18 -47 -36 -31 -18 -55 -35 -53 -38 3 -2
23 7 46 21 22 14 47 26 56 26 9 0 15 9 15 24 0 13 6 27 13 29 10 4 10 6 0 6
-30 2 -7 23 79 72 51 29 98 52 105 52 7 0 9 5 6 10 -4 6 0 8 10 4 10 -4 17 -1
17 6 0 13 8 19 84 61 26 15 53 25 59 23 7 -2 18 4 27 14 8 9 42 32 75 50 33
17 70 39 83 47 12 8 26 12 30 8 3 -4 0 -11 -8 -16 -10 -7 -11 -10 -2 -10 6 0
12 -7 12 -15 0 -13 -11 -19 -32 -17 -3 1 -9 -5 -12 -14 -4 -12 -2 -12 14 -4
10 5 21 10 24 10 10 0 7 -48 -3 -54 -5 -3 -7 -40 -4 -81 5 -66 3 -75 -12 -75
-12 0 -15 5 -11 16 3 9 8 28 11 42 3 15 -2 8 -11 -16 -9 -23 -19 -40 -23 -37
-15 9 -11 88 5 106 15 16 14 17 -4 12 -24 -6 -65 14 -57 28 9 14 0 11 -37 -10
-18 -11 -46 -22 -63 -24 -16 -2 -30 -8 -30 -13 0 -5 -4 -15 -8 -21 -5 -8 -3
-13 4 -13 7 0 9 -3 6 -7 -4 -3 -1 -13 6 -21 8 -10 12 -54 12 -131 l0 -116 45
-11 45 -11 6 31 6 31 2 -30 c1 -47 -11 -59 -55 -52 -27 4 -34 3 -24 -3 8 -5
27 -10 41 -10 15 0 33 -7 40 -17 48 -57 192 -56 239 3 12 15 10 14 -13 -3 -32
-25 -101 -38 -146 -28 -26 6 -30 10 -28 38 3 45 23 64 49 48 11 -7 23 -10 26
-7 3 3 0 6 -6 6 -16 0 -15 27 1 33 9 4 8 8 -3 17 -12 9 -10 10 10 4 14 -3 32
-10 40 -15 13 -7 12 -8 -2 -9 -9 0 -20 -4 -23 -10 -6 -10 22 -3 40 11 13 10
40 -5 32 -17 -3 -5 1 -18 9 -28 13 -18 14 -18 20 -1 6 13 -1 26 -24 45 -26 21
-32 35 -36 78 -3 29 -2 52 2 52 4 0 42 -12 84 -26 l78 -26 0 -86 c0 -48 -4
-102 -9 -120 -9 -30 -8 -33 22 -48 31 -15 32 -15 10 3 -16 13 -21 25 -17 40 5
19 9 20 25 10 13 -8 19 -23 19 -49 0 -44 3 -45 37 -18 14 11 21 20 15 20 -6 0
-18 -7 -26 -16 -15 -14 -16 -13 -16 13 0 21 8 32 29 45 l30 16 4 -31 c2 -18 5
15 5 72 2 94 4 103 20 96 94 -38 467 -165 476 -162 9 3 -50 25 -371 139 l-123
43 0 256 c0 216 2 259 15 269 8 7 15 25 15 40 0 23 9 34 50 59 65 40 65 49 0
11 -28 -17 -53 -30 -55 -30 -12 0 -3 21 11 27 9 3 93 50 187 105 93 54 171 98
173 98 2 0 33 18 69 40 36 22 67 40 69 40 3 0 50 27 106 60 56 33 105 60 110
60 4 0 13 6 19 14 13 15 51 28 51 17 0 -4 -17 -16 -37 -27 -84 -45 -379 -217
-388 -226 -13 -14 22 4 135 70 52 31 115 66 140 79 109 58 146 82 156 103 12
23 24 32 97 74 26 15 47 22 47 17 0 -5 -18 -20 -40 -32 -22 -12 -38 -24 -36
-26 1 -2 24 8 49 23 l47 26 0 -352 c0 -278 -3 -350 -12 -344 -9 5 -9 2 1 -9
17 -21 16 -22 19 10 3 34 8 39 27 23 19 -15 21 -65 3 -54 -8 5 -7 0 2 -11 14
-17 15 -16 21 16 l6 34 4 -34 c4 -32 5 -33 19 -16 9 11 10 16 3 11 -17 -10
-18 35 -1 52 20 20 28 14 28 -19 0 -25 3 -29 13 -20 8 6 18 7 23 3 5 -4 1 2
-9 14 -15 19 -17 53 -17 367 0 225 4 347 10 347 6 0 10 5 10 10 0 6 -11 3 -25
-6 l-25 -16 0 35 c0 25 6 39 19 46 10 6 21 8 24 5 3 -3 42 15 86 41 85 49 109
70 40 35 -23 -12 -43 -19 -46 -16 -3 2 8 11 24 19 16 9 53 31 83 51 54 35 74
40 50 11 -24 -29 5 -15 46 23 22 20 31 29 19 20 -34 -29 -41 -21 -10 12 15 16
32 27 37 24 4 -3 8 -2 8 3 0 4 7 39 15 77 15 73 12 107 -14 143 -18 26 -36 30
-27 7 3 -9 2 -12 -4 -9 -6 4 -9 14 -8 23 4 21 -60 56 -137 77 -63 16 -99 17
-181 5z m180 -46 c77 -20 142 -57 160 -92 18 -35 10 -85 -18 -110 -19 -18
-242 -152 -252 -152 -2 0 -23 -12 -47 -27 -23 -15 -55 -34 -72 -43 -50 -27
-316 -181 -345 -200 -8 -6 -22 -13 -30 -17 -8 -4 -59 -33 -113 -65 -54 -32
-100 -58 -103 -58 -2 0 -32 -17 -66 -38 -35 -21 -83 -50 -108 -64 -82 -45
-213 -121 -348 -200 -73 -43 -135 -78 -137 -78 -4 0 -153 -87 -205 -120 -16
-10 -151 -86 -185 -104 -39 -21 -116 -78 -112 -82 2 -3 21 5 41 17 20 12 39
19 42 17 6 -6 -59 -49 -111 -72 -22 -10 -44 -21 -49 -24 -5 -3 -6 0 -2 7 4 6
20 18 37 26 35 19 39 38 4 22 -14 -7 -25 -15 -25 -19 0 -5 -5 -8 -11 -8 -12 0
-49 -21 -364 -202 -110 -63 -220 -126 -245 -140 -43 -24 -126 -72 -193 -112
-18 -10 -61 -34 -97 -54 -36 -19 -81 -45 -100 -57 -164 -102 -262 -127 -388
-101 -115 24 -201 82 -189 128 3 10 1 18 -4 18 -11 0 7 38 28 58 7 8 11 17 8
22 -3 4 3 14 13 21 16 13 16 13 2 -5 -19 -24 -13 -22 98 43 51 29 91 55 88 58
-3 3 -39 -16 -82 -41 -42 -26 -78 -45 -81 -42 -2 2 33 26 79 53 46 27 86 45
89 40 4 -5 16 -4 29 3 12 6 19 14 16 17 -8 8 13 33 27 33 6 0 2 -7 -9 -15 -10
-8 -14 -14 -9 -15 16 0 40 18 40 31 0 7 7 14 15 16 13 4 13 3 0 -6 -12 -9 -10
-11 10 -11 20 0 22 -2 10 -10 -27 -18 -2 -10 38 11 22 12 38 27 36 33 -4 10
79 64 166 109 8 4 24 13 35 20 11 7 46 27 78 46 32 18 56 35 54 38 -5 5 -37
-13 -190 -103 -112 -67 -128 -74 -107 -49 7 8 16 15 21 15 5 0 37 17 72 39 90
55 225 131 233 131 3 0 0 -8 -7 -17 -15 -17 4 -8 194 104 60 35 110 63 112 63
2 0 61 34 130 75 70 41 128 75 130 75 2 0 39 21 82 46 43 26 96 57 118 69 22
12 66 36 98 54 46 27 56 30 50 15 -7 -18 -6 -18 17 -3 14 9 36 22 49 29 16 8
20 14 12 20 -12 7 21 28 217 139 51 29 91 55 89 57 -2 3 -39 -16 -81 -41 -82
-48 -96 -54 -76 -30 7 8 16 15 20 15 4 0 63 32 129 71 67 39 124 69 127 66 5
-5 -62 -47 -75 -47 -5 0 -14 -7 -21 -15 -20 -24 -5 -18 66 26 37 22 75 39 84
36 9 -2 28 2 41 9 19 11 21 13 6 14 -10 0 -15 5 -12 10 3 6 0 10 -7 10 -7 0 7
14 32 30 25 16 50 30 55 30 6 -1 -9 -12 -33 -27 -24 -14 -41 -28 -38 -30 3 -3
39 16 81 41 42 25 79 46 84 46 5 0 14 7 21 15 17 21 4 19 -28 -4 -44 -30 -72
-43 -72 -32 0 6 11 13 25 17 14 3 25 10 25 15 0 5 5 9 11 9 6 0 23 8 37 19 49
33 261 149 247 133 -12 -12 -185 -112 -195 -112 -4 0 -13 -7 -20 -15 -7 -8
-10 -15 -8 -15 3 0 61 32 129 71 216 124 228 129 234 119 4 -7 21 -2 46 12 26
14 35 24 27 29 -7 5 -10 10 -8 12 12 8 132 77 136 77 2 0 21 11 42 23 20 13
57 35 82 49 25 14 70 39 102 57 58 33 154 59 222 60 21 1 66 -6 100 -15z
m-260 -600 c14 -5 16 -44 16 -330 0 -178 -3 -324 -6 -324 -3 0 -14 5 -25 10
-18 10 -19 25 -19 330 0 188 4 320 9 320 5 0 16 -3 25 -6z m76 -319 c0 -300
-1 -315 -19 -325 -11 -5 -22 -10 -25 -10 -3 0 -6 145 -6 323 l0 323 25 2 25 2
0 -315z m-305 272 c-29 -20 -318 -189 -435 -254 -130 -73 -281 -160 -312 -180
-21 -12 -42 -23 -48 -23 -5 0 -29 -14 -54 -31 -24 -17 -49 -30 -56 -27 -6 2
86 60 207 128 120 69 227 130 238 137 11 7 27 16 35 20 8 4 58 32 110 63 104
61 250 146 290 167 33 17 50 17 25 0z m-956 -608 c-11 -7 -10 -9 4 -9 16 0 17
-17 17 -215 l0 -215 -82 30 c-45 17 -84 30 -87 30 -3 1 5 7 19 15 25 14 25 14
3 15 -23 0 -23 2 -23 133 0 90 4 137 12 145 9 9 9 12 1 12 -22 0 -25 -22 -24
-154 l2 -133 -23 4 c-22 4 -23 7 -21 111 2 59 6 114 10 122 3 8 5 21 4 28 -1
6 8 16 21 21 13 5 39 20 58 33 42 29 70 40 70 29 0 -5 -7 -12 -16 -15 -9 -4
-14 -9 -11 -12 12 -12 44 20 39 39 -4 17 -3 18 18 7 18 -10 20 -14 9 -21z m81
-214 l0 -244 -22 8 c-23 8 -23 11 -26 212 -1 112 1 210 4 219 4 8 6 18 6 23
-1 4 5 7 13 7 8 0 15 5 15 10 0 6 2 10 5 10 3 0 5 -110 5 -245z m57 -261 c-1
-2 -13 -1 -25 3 -22 5 -22 7 -22 234 0 229 0 230 23 238 l22 8 3 -240 c1 -132
1 -241 -1 -243z m-1712 -1112 c-2 -3 -11 1 -20 8 -13 11 -15 58 -15 336 0 297
1 324 18 333 16 9 17 -10 20 -331 1 -188 0 -343 -3 -346z m65 334 l0 -315 -22
-16 -23 -15 -3 311 c-2 280 -1 314 14 331 10 10 21 18 26 18 4 0 8 -141 8
-314z m-302 -227 c-19 -12 0 -11 23 2 17 9 21 6 30 -20 6 -17 15 -31 20 -31
20 0 7 -21 -23 -40 -24 -14 -51 -20 -95 -20 l-63 0 0 30 c0 20 -5 30 -15 30
-9 0 -15 -9 -15 -21 0 -18 -2 -19 -15 -9 -23 19 -18 57 10 76 20 13 28 14 40
4 9 -7 18 -10 22 -6 3 3 1 6 -5 6 -7 0 -12 5 -12 10 0 6 11 10 25 10 19 0 25
-5 25 -21 0 -13 -4 -18 -12 -13 -9 5 -9 3 1 -9 17 -21 31 -13 31 19 0 15 6 24
15 24 8 0 15 5 15 10 0 6 -6 10 -12 10 -9 0 -8 4 2 10 12 7 16 4 18 -17 2 -14
-2 -30 -10 -34z"/>
<path d="M3625 3184 c-27 -14 -75 -41 -105 -59 -49 -29 -421 -244 -493 -284
-16 -9 -36 -21 -45 -26 -9 -6 -59 -34 -110 -63 -52 -29 -139 -80 -194 -113
-55 -32 -101 -59 -103 -59 -2 0 -60 -34 -130 -75 -69 -41 -128 -75 -129 -75
-3 0 -141 -79 -176 -101 -34 -22 -162 -94 -240 -136 -36 -20 -139 -79 -230
-133 -91 -53 -230 -134 -310 -180 -80 -46 -201 -116 -270 -156 -195 -112 -460
-264 -510 -291 -25 -14 -49 -29 -54 -33 -5 -5 -15 -6 -22 -3 -8 3 -14 1 -14
-4 0 -9 -75 -63 -88 -63 -4 0 -20 -10 -35 -23 -34 -27 -56 -107 -28 -102 9 1
29 -4 45 -13 21 -10 50 -13 100 -10 65 5 68 4 41 -8 -43 -19 -95 -17 -138 5
-46 23 -48 18 -5 -9 51 -31 107 -26 190 16 50 25 69 31 65 20 -5 -13 -3 -14
12 -4 16 10 17 13 5 26 -17 16 -3 42 22 42 8 0 14 4 14 9 0 5 9 11 20 14 29 7
25 2 -16 -23 -65 -41 -28 -31 45 11 42 25 67 45 61 49 -8 5 -6 9 5 13 9 4 13
3 10 -3 -3 -6 -2 -10 4 -10 5 0 17 -3 27 -7 12 -4 15 -3 10 5 -4 8 -2 10 8 6
19 -7 71 26 56 36 -10 6 81 65 211 138 106 59 211 120 267 154 35 21 65 38 67
38 2 0 61 34 130 75 70 41 128 75 130 75 2 0 36 19 77 43 40 24 93 55 118 69
134 74 160 91 156 95 -3 3 -28 -9 -56 -26 -28 -17 -52 -31 -54 -31 -3 0 -50
-27 -106 -60 -56 -33 -103 -60 -106 -60 -2 0 -26 -14 -54 -31 -28 -17 -53 -29
-56 -26 -4 4 21 20 155 95 25 14 68 38 95 54 129 76 173 97 194 91 19 -5 20
-8 10 -22 -11 -14 -10 -14 5 -1 9 8 18 25 20 37 2 12 7 26 12 30 4 5 4 2 0 -6
-6 -11 -4 -13 8 -8 20 8 22 -4 5 -22 -11 -11 -9 -11 10 -2 12 6 22 19 22 29 0
11 3 13 8 5 9 -15 88 31 85 50 -2 11 56 47 246 152 134 75 201 119 190 125 -8
6 -6 11 9 19 29 16 37 14 21 -6 -8 -10 11 -3 46 17 33 19 74 41 90 50 78 41
155 93 155 105 0 10 110 85 126 85 2 0 22 11 44 25 22 14 40 20 40 14 0 -14
37 -2 80 27 38 26 50 29 50 13 0 -5 -4 -7 -10 -4 -5 3 -10 1 -10 -5 0 -7 3
-10 8 -8 59 29 82 44 78 54 -4 10 62 64 79 64 3 0 24 12 47 26 32 21 42 23 49
13 6 -11 11 -11 21 -1 9 9 9 12 -1 12 -21 0 -1 20 37 36 20 9 32 18 25 21 -6
2 -40 -14 -76 -36 -80 -49 -148 -84 -153 -79 -3 4 222 135 251 147 6 2 4 -3
-4 -12 -21 -26 -2 -19 64 23 33 21 59 43 58 49 -2 6 2 11 8 11 6 0 9 -9 6 -20
-3 -12 -1 -17 5 -14 10 7 1 78 -14 107 -26 50 -135 61 -213 21z m169 -44 c14
-5 26 -16 26 -24 0 -8 -53 -45 -117 -83 -65 -37 -125 -72 -134 -78 -71 -42
-147 -84 -164 -89 -17 -5 -21 -1 -23 23 -2 26 5 34 57 65 32 20 66 36 74 36 9
0 18 4 21 9 3 5 -2 8 -12 7 -24 -2 -24 47 1 52 11 2 17 -3 17 -16 0 -10 6 -19
14 -19 11 0 11 5 0 26 -16 31 -11 38 60 75 52 28 131 35 180 16z m-584 -265
c0 -2 -21 -16 -47 -31 -44 -25 -158 -92 -243 -143 -19 -11 -42 -24 -50 -28 -8
-4 -60 -34 -115 -66 -55 -33 -120 -70 -145 -84 -25 -14 -108 -62 -185 -106
-77 -44 -153 -87 -170 -95 -16 -9 -46 -26 -65 -39 -19 -13 -41 -23 -50 -23
-14 0 45 41 119 82 20 10 52 29 71 40 19 11 64 36 100 56 36 19 81 45 100 57
19 12 42 25 50 28 8 4 33 18 55 32 22 14 56 34 75 45 19 11 42 24 50 30 47 29
221 130 226 130 2 0 34 18 70 40 36 22 69 40 73 40 3 0 17 9 31 20 23 18 50
26 50 15z m0 -35 c0 -6 -8 -14 -17 -17 -10 -4 -73 -40 -141 -80 -68 -40 -125
-73 -127 -73 -2 0 -36 -19 -77 -43 -40 -24 -100 -58 -133 -76 -33 -19 -67 -40
-75 -48 -15 -16 85 36 130 67 14 9 59 35 100 57 41 23 127 72 192 110 140 84
170 97 203 89 55 -14 45 -21 -315 -229 -52 -30 -149 -86 -215 -125 -66 -38
-145 -83 -175 -99 -30 -17 -80 -45 -110 -63 -74 -45 -176 -100 -184 -100 -9 0
-7 70 2 70 4 0 18 10 32 21 l25 21 -27 -16 c-31 -18 -38 -20 -38 -7 0 5 17 18
38 29 20 11 109 61 197 112 88 51 180 104 205 118 25 14 78 45 118 69 41 24
75 43 76 43 2 0 72 41 157 90 84 50 154 90 156 90 2 0 3 -5 3 -10z m-1123
-658 c29 -19 14 -92 -20 -92 -5 0 -21 -8 -35 -19 -22 -15 -148 -89 -327 -191
-16 -9 -118 -68 -225 -130 -204 -117 -236 -136 -335 -190 -33 -18 -77 -44 -97
-57 -21 -12 -40 -23 -43 -23 -2 0 -27 -14 -55 -31 -41 -25 -53 -29 -65 -19 -8
7 -23 9 -32 5 -17 -6 -17 -7 0 -16 21 -12 13 -18 -137 -108 -84 -51 -90 -53
-102 -36 -8 11 -14 16 -14 12 0 -4 -10 -3 -21 4 -20 10 -20 12 -5 27 15 15 18
15 26 2 5 -8 10 -10 10 -4 0 6 23 23 50 38 33 18 50 34 50 47 0 22 8 24 33 5
14 -11 15 -15 5 -19 -7 -3 -3 -6 8 -6 12 -1 25 6 28 15 3 8 10 13 15 9 5 -3
11 5 13 17 2 16 25 35 81 67 43 24 76 46 73 49 -3 2 -16 -2 -28 -10 -61 -39
-138 -77 -138 -68 0 6 8 14 18 17 9 4 37 19 62 33 25 15 110 64 190 110 80 45
166 96 192 112 26 17 53 28 59 26 12 -4 -17 -23 -116 -78 -99 -55 -175 -101
-175 -106 0 -3 26 9 58 27 31 17 77 43 102 57 25 14 62 36 83 49 21 13 55 33
75 45 353 199 474 270 469 274 -2 3 -62 -29 -132 -71 -70 -41 -128 -75 -130
-75 -2 0 -49 -27 -106 -60 -56 -34 -106 -59 -112 -57 -9 3 184 120 313 190 30
17 66 38 80 47 47 31 160 90 160 82 0 -4 -14 -15 -31 -25 -18 -10 -29 -20 -27
-23 3 -3 48 21 99 52 52 32 110 63 129 70 19 7 27 13 18 14 -10 0 -18 5 -18
10 0 12 10 13 27 2z m-207 -76 c-8 -7 -37 -26 -65 -41 -27 -15 -75 -42 -106
-61 -31 -19 -59 -34 -62 -34 -3 0 -74 -41 -159 -91 -157 -93 -213 -126 -283
-163 -22 -12 -85 -48 -140 -80 -235 -138 -267 -156 -276 -156 -16 0 -1 18 29
33 53 27 258 144 325 185 37 23 69 42 72 42 2 0 45 25 95 55 50 30 92 55 95
55 2 0 36 19 77 43 40 24 98 57 128 74 30 17 100 58 155 91 97 58 148 80 115
48z m-1330 -805 c0 -5 14 -14 30 -21 17 -7 30 -16 30 -20 0 -5 -17 -18 -37
-31 -67 -39 -213 -32 -213 11 0 20 78 59 126 63 27 2 52 4 57 5 4 1 7 -2 7 -7z"/>
<path d="M1832 1685 c-33 -81 -45 -104 -53 -100 -4 3 -10 1 -14 -5 -3 -5 1
-10 9 -10 10 0 13 -6 9 -16 -5 -14 -3 -15 15 -5 27 14 27 43 -3 -269 -14 -140
-24 -268 -24 -285 2 -55 15 49 39 310 13 138 25 252 27 254 2 3 10 -4 18 -15
11 -15 14 -16 15 -4 0 12 2 12 9 2 5 -8 6 8 3 39 -4 46 -2 54 19 71 22 17 22
18 2 9 -19 -10 -22 -8 -26 17 -4 25 -4 25 -6 -5 -2 -45 -19 -42 -23 5 l-4 37
-12 -30z"/>
</g>
</svg>
